<?xml version="1.0" standalone="no"?><!DOCTYPE svg PUBLIC "-//W3C//DTD SVG 1.1//EN" "http://www.w3.org/Graphics/SVG/1.1/DTD/svg11.dtd"><svg t="1755270618348" class="icon" viewBox="0 0 1024 1024" version="1.1" xmlns="http://www.w3.org/2000/svg" p-id="23766" width="200" height="200" xmlns:xlink="http://www.w3.org/1999/xlink"><path d="M832.313672 0H191.597297a166.614912 166.614912 0 0 0-166.383824 166.383824v683.5371a166.614912 166.614912 0 0 0 166.383824 166.383824l401.146778 0.20798-92.065716-159.451165a39.28507 39.28507 0 0 1 0-39.446831l127.283625-220.458567a39.446832 39.446832 0 0 1 34.154902-19.711861h254.613468a39.446832 39.446832 0 0 1 34.154901 19.73497l47.927785 83.191912V166.45315a166.707348 166.707348 0 0 0-166.522477-166.383823zM378.293813 784.846362h-124.787868a60.083047 60.083047 0 1 1 0-120.166095h124.787868a60.083047 60.083047 0 1 1 0 120.166095z m118.710236-240.771258H253.390401a60.083047 60.083047 0 1 1 0-120.166095h243.613648a60.083047 60.083047 0 1 1 0 120.166095z m279.478607-240.701932H253.390401a60.083047 60.083047 0 1 1 0-120.166095h523.069146a60.083047 60.083047 0 1 1 0 120.166095z" fill="#d32f2f" p-id="23767"></path><path d="M909.589715 672.56039a43.306012 43.306012 0 0 0-37.528796-21.629897h-165.390143a43.35223 43.35223 0 0 0-37.528796 21.629897l-82.706625 143.274959a43.306012 43.306012 0 0 0 0 43.259795l82.706625 143.274959a43.282903 43.282903 0 0 0 37.528796 21.629897h165.505687a43.375339 43.375339 0 0 0 37.528796-21.629897l82.683517-143.274959a43.306012 43.306012 0 0 0 0-43.259795z m-120.166095 242.411988a77.553349 77.553349 0 1 1 77.553349-77.553349 77.553349 77.553349 0 0 1-77.599567 77.576458z" fill="#d32f2f" p-id="23768"></path><path d="M191.597297 0a166.614912 166.614912 0 0 0-166.383824 166.383824v683.5371a166.614912 166.614912 0 0 0 166.383824 166.383824l188.730096 0.138653a810.520311 810.520311 0 0 0 166.915328-78.570139l-46.564362-80.649936a39.28507 39.28507 0 0 1 0-39.446832l127.283625-220.458567a39.446832 39.446832 0 0 1 34.154902-19.711861h200.608052A816.2282 816.2282 0 0 0 900.11508 14.558585a164.858639 164.858639 0 0 0-67.732081-14.581694H191.597297z m186.696516 784.961906h-124.787868a60.083047 60.083047 0 1 1 0-120.166094h124.787868a60.083047 60.083047 0 1 1 0 120.166094z m118.710236-240.771258H253.390401a60.083047 60.083047 0 1 1 0-120.166095h243.613648a60.083047 60.083047 0 1 1 0 120.166095z m279.478607-240.701932H253.390401a60.083047 60.083047 0 1 1 0-120.166095h523.069146a60.083047 60.083047 0 1 1 0 120.166095z" fill="#d32f2f" p-id="23769"></path><path d="M669.234416 672.56039l-82.706626 143.274959a43.329121 43.329121 0 0 0 0 43.259795l21.491244 37.251489a816.366853 816.366853 0 0 0 217.223325-245.393031h-118.571583a43.259794 43.259794 0 0 0-37.459469 21.629897z" fill="#d32f2f" p-id="23770"></path><path d="M253.390401 303.465608a60.083047 60.083047 0 1 1 0-120.166095h425.203105a812.36902 812.36902 0 0 0 30.91966-183.322622H191.597297a166.614912 166.614912 0 0 0-166.383824 166.383824v593.712945a808.255642 808.255642 0 0 0 169.226214-45.963532 60.083047 60.083047 0 0 1 59.089367-49.383643h44.392128a812.646326 812.646326 0 0 0 162.039358-120.605163H253.552163a60.083047 60.083047 0 1 1 0-120.166095h243.613648a60.083047 60.083047 0 0 1 48.205092 24.333634 813.200939 813.200939 0 0 0 88.044773-144.938798H253.505945z" fill="#d32f2f" p-id="23771"></path><path d="M216.57798 290.825059a60.083047 60.083047 0 0 1 36.789312-107.502438h69.118613A813.940422 813.940422 0 0 0 435.719341 0H191.597297a166.614912 166.614912 0 0 0-166.383824 166.383824v244.953963a815.465608 815.465608 0 0 0 191.433833-120.489619z" fill="#d32f2f" p-id="23772"></path></svg>